<?xml version="1.0" encoding="UTF-8" standalone="no"?>
<!DOCTYPE svg PUBLIC "-//W3C//DTD SVG 1.1//EN"
 "http://www.w3.org/Graphics/SVG/1.1/DTD/svg11.dtd">
<!-- Generated by graphviz version 14.1.3 (20260303.0454)
 -->
<!-- Title: pipeline Pages: 1 -->
<svg width="374pt" height="543pt"
 viewBox="0.00 0.00 374.00 543.00" xmlns="http://www.w3.org/2000/svg" xmlns:xlink="http://www.w3.org/1999/xlink">
<g id="graph0" class="graph" transform="scale(1 1) rotate(0) translate(10.08 533.08)">
<title>pipeline</title>
<polygon fill="white" stroke="none" points="-10.08,10.08 -10.08,-533.08 364.08,-533.08 364.08,10.08 -10.08,10.08"/>
<g id="clust1" class="cluster">
<title>cluster_sigizi</title>
<path fill="#fafcfe" stroke="#388e73" stroke-width="1.5" d="M20,-8C20,-8 334,-8 334,-8 340,-8 346,-14 346,-20 346,-20 346,-503 346,-503 346,-509 340,-515 334,-515 334,-515 20,-515 20,-515 14,-515 8,-509 8,-503 8,-503 8,-20 8,-20 8,-14 14,-8 20,-8"/>
<text xml:space="preserve" text-anchor="middle" x="177" y="-498.4" font-family="DejaVu Sans" font-size="14.00">SIGIZI | pregnancy and outcome</text>
<text xml:space="preserve" text-anchor="middle" x="177" y="-481.6" font-family="DejaVu Sans" font-size="14.00">records</text>
</g>
<!-- sr -->
<g id="node1" class="node">
<title>sr</title>
<path fill="#f1f3f5" stroke="#60768a" stroke-width="0.8" d="M155.72,-465.4C155.72,-465.4 32.28,-465.4 32.28,-465.4 26.28,-465.4 20.28,-459.4 20.28,-453.4 20.28,-453.4 20.28,-385.24 20.28,-385.24 20.28,-379.24 26.28,-373.24 32.28,-373.24 32.28,-373.24 155.72,-373.24 155.72,-373.24 161.72,-373.24 167.72,-379.24 167.72,-385.24 167.72,-385.24 167.72,-453.4 167.72,-453.4 167.72,-459.4 161.72,-465.4 155.72,-465.4"/>
<text xml:space="preserve" text-anchor="middle" x="94" y="-449.02" font-family="DejaVu Sans" font-size="11.00">raw_data</text>
<text xml:space="preserve" text-anchor="middle" x="94" y="-435.82" font-family="DejaVu Sans" font-size="11.00">sigizi_kesga_bumil_anc</text>
<text xml:space="preserve" text-anchor="middle" x="94" y="-422.62" font-family="DejaVu Sans" font-size="11.00">sigizi_daftar_ibu</text>
<text xml:space="preserve" text-anchor="middle" x="94" y="-409.42" font-family="DejaVu Sans" font-size="11.00">sigizi_daftar_ibu_hamil</text>
<text xml:space="preserve" text-anchor="middle" x="94" y="-396.22" font-family="DejaVu Sans" font-size="11.00">sigizi_kohort_ibu</text>
<text xml:space="preserve" text-anchor="middle" x="94" y="-383.02" font-family="DejaVu Sans" font-size="11.00">sigizi_ibu_nifas</text>
</g>
<!-- sv -->
<g id="node2" class="node">
<title>sv</title>
<path fill="#e8eff8" stroke="#60768a" stroke-width="0.8" d="M166.39,-342.24C166.39,-342.24 27.61,-342.24 27.61,-342.24 21.61,-342.24 15.61,-336.24 15.61,-330.24 15.61,-330.24 15.61,-275.28 15.61,-275.28 15.61,-269.28 21.61,-263.28 27.61,-263.28 27.61,-263.28 166.39,-263.28 166.39,-263.28 172.39,-263.28 178.39,-269.28 178.39,-275.28 178.39,-275.28 178.39,-330.24 178.39,-330.24 178.39,-336.24 172.39,-342.24 166.39,-342.24"/>
<text xml:space="preserve" text-anchor="middle" x="97" y="-325.86" font-family="DejaVu Sans" font-size="11.00">vs_sigizi_anc</text>
<text xml:space="preserve" text-anchor="middle" x="97" y="-312.66" font-family="DejaVu Sans" font-size="11.00">vs_sigizi_daftar_ibu</text>
<text xml:space="preserve" text-anchor="middle" x="97" y="-299.46" font-family="DejaVu Sans" font-size="11.00">vs_sigizi_daftar_ibu_hamil</text>
<text xml:space="preserve" text-anchor="middle" x="97" y="-286.26" font-family="DejaVu Sans" font-size="11.00">vs_sigizi_kohort_ibu</text>
<text xml:space="preserve" text-anchor="middle" x="97" y="-273.06" font-family="DejaVu Sans" font-size="11.00">vs_sigizi_kohort_nifas</text>
</g>
<!-- sr&#45;&gt;sv -->
<g id="edge1" class="edge">
<title>sr&#45;&gt;sv</title>
<path fill="none" stroke="#60768a" d="M95.19,-373.04C95.38,-365.76 95.57,-358.21 95.77,-350.88"/>
<polygon fill="#60768a" stroke="#60768a" points="98.21,-350.99 95.95,-343.93 93.32,-350.87 98.21,-350.99"/>
</g>
<!-- gate -->
<g id="node5" class="node">
<title>gate</title>
<path fill="#fff2df" stroke="#60768a" stroke-width="0.8" d="M249.94,-222.48C249.94,-222.48 110.06,-222.48 110.06,-222.48 104.06,-222.48 98.06,-216.48 98.06,-210.48 98.06,-210.48 98.06,-181.92 98.06,-181.92 98.06,-175.92 104.06,-169.92 110.06,-169.92 110.06,-169.92 249.94,-169.92 249.94,-169.92 255.94,-169.92 261.94,-175.92 261.94,-181.92 261.94,-181.92 261.94,-210.48 261.94,-210.48 261.94,-216.48 255.94,-222.48 249.94,-222.48"/>
<text xml:space="preserve" text-anchor="middle" x="180" y="-206.1" font-family="DejaVu Sans" font-size="11.00">03_sigizi_source.sql</text>
<text xml:space="preserve" text-anchor="middle" x="180" y="-192.9" font-family="DejaVu Sans" font-size="11.00">Exclude matching deleted</text>
<text xml:space="preserve" text-anchor="middle" x="180" y="-179.7" font-family="DejaVu Sans" font-size="11.00">pregnancies</text>
</g>
<!-- sv&#45;&gt;gate -->
<g id="edge2" class="edge">
<title>sv&#45;&gt;gate</title>
<path fill="none" stroke="#60768a" d="M127.67,-263.12C136.54,-251.95 146.12,-239.87 154.63,-229.15"/>
<polygon fill="#60768a" stroke="#60768a" points="156.4,-230.87 158.84,-223.86 152.57,-227.82 156.4,-230.87"/>
</g>
<!-- dr -->
<g id="node3" class="node">
<title>dr</title>
<path fill="#f1f3f5" stroke="#60768a" stroke-width="0.8" d="M325.62,-439C325.62,-439 198.38,-439 198.38,-439 192.38,-439 186.38,-433 186.38,-427 186.38,-427 186.38,-411.64 186.38,-411.64 186.38,-405.64 192.38,-399.64 198.38,-399.64 198.38,-399.64 325.62,-399.64 325.62,-399.64 331.62,-399.64 337.62,-405.64 337.62,-411.64 337.62,-411.64 337.62,-427 337.62,-427 337.62,-433 331.62,-439 325.62,-439"/>
<text xml:space="preserve" text-anchor="middle" x="262" y="-422.62" font-family="DejaVu Sans" font-size="11.00">raw_data</text>
<text xml:space="preserve" text-anchor="middle" x="262" y="-409.42" font-family="DejaVu Sans" font-size="11.00">sigizi_bumil_hapus_new</text>
</g>
<!-- dv -->
<g id="node4" class="node">
<title>dv</title>
<path fill="#e8eff8" stroke="#60768a" stroke-width="0.8" d="M326.37,-322.44C326.37,-322.44 209.63,-322.44 209.63,-322.44 203.63,-322.44 197.63,-316.44 197.63,-310.44 197.63,-310.44 197.63,-295.08 197.63,-295.08 197.63,-289.08 203.63,-283.08 209.63,-283.08 209.63,-283.08 326.37,-283.08 326.37,-283.08 332.37,-283.08 338.37,-289.08 338.37,-295.08 338.37,-295.08 338.37,-310.44 338.37,-310.44 338.37,-316.44 332.37,-322.44 326.37,-322.44"/>
<text xml:space="preserve" text-anchor="middle" x="268" y="-306.06" font-family="DejaVu Sans" font-size="11.00">vs_sigizi_bumil_hapus</text>
<text xml:space="preserve" text-anchor="middle" x="268" y="-292.86" font-family="DejaVu Sans" font-size="11.00">Deletion registry</text>
</g>
<!-- dr&#45;&gt;dv -->
<g id="edge3" class="edge">
<title>dr&#45;&gt;dv</title>
<path fill="none" stroke="#60768a" d="M262.99,-399.4C263.97,-380.75 265.47,-352.04 266.58,-330.95"/>
<polygon fill="#60768a" stroke="#60768a" points="269.01,-331.34 266.93,-324.22 264.12,-331.08 269.01,-331.34"/>
</g>
<!-- dv&#45;&gt;gate -->
<g id="edge4" class="edge">
<title>dv&#45;&gt;gate</title>
<path fill="none" stroke="#60768a" d="M252.27,-283.07C239.67,-268.1 221.73,-246.78 206.87,-229.12"/>
<polygon fill="#60768a" stroke="#60768a" points="208.9,-227.74 202.52,-223.96 205.15,-230.89 208.9,-227.74"/>
<text xml:space="preserve" text-anchor="middle" x="265.68" y="-240.18" font-family="DejaVu Sans" font-size="9.00">exclusion reference</text>
</g>
<!-- ss -->
<g id="node6" class="node">
<title>ss</title>
<path fill="#e8f2ee" stroke="#60768a" stroke-width="0.8" d="M241.35,-138.92C241.35,-138.92 118.65,-138.92 118.65,-138.92 112.65,-138.92 106.65,-132.92 106.65,-126.92 106.65,-126.92 106.65,-111.56 106.65,-111.56 106.65,-105.56 112.65,-99.56 118.65,-99.56 118.65,-99.56 241.35,-99.56 241.35,-99.56 247.35,-99.56 253.35,-105.56 253.35,-111.56 253.35,-111.56 253.35,-126.92 253.35,-126.92 253.35,-132.92 247.35,-138.92 241.35,-138.92"/>
<text xml:space="preserve" text-anchor="middle" x="180" y="-122.54" font-family="DejaVu Sans" font-size="11.00">t_sigizi_source_records</text>
<text xml:space="preserve" text-anchor="middle" x="180" y="-109.34" font-family="DejaVu Sans" font-size="11.00">Active SIGIZI records</text>
</g>
<!-- gate&#45;&gt;ss -->
<g id="edge5" class="edge">
<title>gate&#45;&gt;ss</title>
<path fill="none" stroke="#60768a" d="M180,-169.82C180,-162.62 180,-154.74 180,-147.44"/>
<polygon fill="#60768a" stroke="#60768a" points="182.45,-147.71 180,-140.71 177.55,-147.71 182.45,-147.71"/>
</g>
<!-- geo -->
<g id="node7" class="node">
<title>geo</title>
<path fill="#fff2df" stroke="#60768a" stroke-width="0.8" d="M263.98,-68.56C263.98,-68.56 96.02,-68.56 96.02,-68.56 90.02,-68.56 84.02,-62.56 84.02,-56.56 84.02,-56.56 84.02,-28 84.02,-28 84.02,-22 90.02,-16 96.02,-16 96.02,-16 263.98,-16 263.98,-16 269.98,-16 275.98,-22 275.98,-28 275.98,-28 275.98,-56.56 275.98,-56.56 275.98,-62.56 269.98,-68.56 263.98,-68.56"/>
<text xml:space="preserve" text-anchor="middle" x="180" y="-52.18" font-family="DejaVu Sans" font-size="11.00">03a_sigizi_geography.sql</text>
<text xml:space="preserve" text-anchor="middle" x="180" y="-38.98" font-family="DejaVu Sans" font-size="11.00">Correct geography in the same</text>
<text xml:space="preserve" text-anchor="middle" x="180" y="-25.78" font-family="DejaVu Sans" font-size="11.00">source table</text>
</g>
<!-- ss&#45;&gt;geo -->
<g id="edge6" class="edge">
<title>ss&#45;&gt;geo</title>
<path fill="none" stroke="#60768a" d="M180,-99.32C180,-92.51 180,-84.6 180,-76.9"/>
<polygon fill="#60768a" stroke="#60768a" points="182.45,-77.22 180,-70.22 177.55,-77.22 182.45,-77.22"/>
</g>
</g>
</svg>
